<svg width="97" height="97" viewBox="0 0 97 97" fill="none" xmlns="http://www.w3.org/2000/svg">
<path d="M16.6356 91.528C15.7767 91.5512 14.9658 91.55 14.2133 91.528C15.0392 91.528 15.8465 91.528 16.6356 91.528C28.0203 91.2204 47.8413 86.6366 52.0412 69.697C55.5041 57.05 47.4617 46.9876 43.0077 43.5373C36.9853 39.3342 24.9406 28.8954 24.9406 20.7652C24.9406 10.6025 30.2102 5.70931 38.3027 4.20372C46.3953 2.69813 77.2599 9.28509 87.2345 32.4336C97.209 55.582 83.4705 80.4243 55.0524 89.0814C48.6635 91.4545 42.0975 91.5258 16.6356 91.528Z" fill="#2F457C"/>
<path d="M14.9664 43.5373C28.0626 43.5374 38.6792 52.9744 38.6793 64.6154C38.6793 76.2565 28.0626 85.6934 14.9664 85.6935C14.5396 85.6935 14.1152 85.6831 13.6939 85.6633C11.7081 85.2482 8.00265 83.8634 8.00253 81.3654V48.2424C7.95091 47.2099 8.67305 45.1249 11.6148 43.7473C12.7097 43.6096 13.8288 43.5373 14.9664 43.5373Z" fill="#2F457C"/>
</svg>
