<svg width="261" height="88" viewBox="0 0 261 88" fill="none" xmlns="http://www.w3.org/2000/svg">
<path d="M8.63567 87.528C7.77675 87.5512 6.96586 87.55 6.21332 87.528C7.03928 87.528 7.84656 87.528 8.63567 87.528C20.0203 87.2204 39.8414 82.6366 44.0413 65.697C47.5042 53.05 39.4618 42.9876 35.0078 39.5373C28.9854 35.3342 16.9407 24.8954 16.9407 16.7652C16.9407 6.60248 22.2102 1.70931 30.3028 0.20372C38.3953 -1.30187 69.26 5.28509 79.2345 28.4336C89.2091 51.582 75.4705 76.4243 47.0525 85.0814C40.6635 87.4545 34.0975 87.5258 8.63567 87.528Z" fill="white"/>
<path d="M6.9664 39.5374C20.0626 39.5375 30.6792 48.9744 30.6793 60.6155C30.6793 72.2566 20.0626 81.6935 6.9664 81.6936C6.53961 81.6936 6.11518 81.6831 5.69394 81.6633C3.70809 81.2483 0.00264512 79.8635 0.00253197 77.3655V44.2424C-0.0490931 43.21 0.673049 41.125 3.61484 39.7473C4.7097 39.6096 5.82878 39.5374 6.9664 39.5374Z" fill="white"/>
<path d="M95.5762 31.968C94.4562 31.968 93.5922 31.696 92.9842 31.152C92.4082 30.576 92.1202 29.776 92.1202 28.752C92.1202 27.728 92.4082 26.944 92.9842 26.4C93.5922 25.856 94.4562 25.584 95.5762 25.584C96.6642 25.584 97.4962 25.856 98.0722 26.4C98.6802 26.944 98.9842 27.728 98.9842 28.752C98.9842 29.776 98.6802 30.576 98.0722 31.152C97.4962 31.696 96.6642 31.968 95.5762 31.968ZM98.1202 36V60H92.9842V36H98.1202ZM127.276 30.96L128.092 34.992C127.996 34.992 127.9 34.992 127.804 34.992C127.708 34.96 127.612 34.944 127.516 34.944C125.98 34.944 124.812 35.28 124.012 35.952C123.212 36.592 122.812 37.536 122.812 38.784L120.316 37.632C120.316 36.352 120.588 35.216 121.132 34.224C121.676 33.2 122.444 32.4 123.436 31.824C124.46 31.248 125.612 30.96 126.892 30.96C126.956 30.96 127.02 30.96 127.084 30.96C127.148 30.96 127.212 30.96 127.276 30.96ZM119.692 56.256C122.124 56.256 124.012 56.8 125.356 57.888C126.7 58.944 127.372 60.416 127.372 62.304C127.372 63.968 126.844 65.392 125.788 66.576C124.732 67.792 123.292 68.72 121.468 69.36C119.676 70 117.612 70.32 115.276 70.32C111.34 70.32 108.428 69.712 106.54 68.496C104.652 67.28 103.708 65.76 103.708 63.936C103.708 62.656 104.156 61.536 105.052 60.576C105.98 59.616 107.532 59.072 109.708 58.944L109.42 59.712C108.076 59.424 106.988 58.912 106.156 58.176C105.356 57.408 104.956 56.336 104.956 54.96C104.956 53.584 105.484 52.416 106.54 51.456C107.596 50.496 109.084 49.936 111.004 49.776L113.692 51.072H113.116C111.644 51.2 110.604 51.536 109.996 52.08C109.388 52.624 109.084 53.232 109.084 53.904C109.084 54.704 109.372 55.296 109.948 55.68C110.556 56.064 111.404 56.256 112.492 56.256H119.692ZM115.276 66.48C117.036 66.48 118.476 66.304 119.596 65.952C120.748 65.632 121.596 65.2 122.14 64.656C122.716 64.144 123.004 63.568 123.004 62.928C123.004 62.192 122.7 61.6 122.092 61.152C121.516 60.704 120.46 60.48 118.924 60.48H111.196C110.3 60.48 109.548 60.704 108.94 61.152C108.332 61.632 108.028 62.272 108.028 63.072C108.028 64.128 108.668 64.96 109.948 65.568C111.228 66.176 113.004 66.48 115.276 66.48ZM115.084 35.52C117.196 35.52 119.02 35.856 120.556 36.528C122.124 37.2 123.324 38.144 124.156 39.36C125.02 40.576 125.452 42 125.452 43.632C125.452 45.264 125.02 46.688 124.156 47.904C123.324 49.12 122.124 50.064 120.556 50.736C119.02 51.408 117.196 51.744 115.084 51.744C111.756 51.744 109.196 51.008 107.404 49.536C105.644 48.032 104.764 46.064 104.764 43.632C104.764 42 105.196 40.576 106.06 39.36C106.924 38.144 108.124 37.2 109.66 36.528C111.228 35.856 113.036 35.52 115.084 35.52ZM115.084 39.12C113.612 39.12 112.38 39.536 111.388 40.368C110.428 41.168 109.948 42.256 109.948 43.632C109.948 45.008 110.428 46.112 111.388 46.944C112.38 47.776 113.612 48.192 115.084 48.192C116.588 48.192 117.82 47.776 118.78 46.944C119.772 46.112 120.268 45.008 120.268 43.632C120.268 42.256 119.772 41.168 118.78 40.368C117.82 39.536 116.588 39.12 115.084 39.12ZM141.198 60.48C138.798 60.48 136.606 60.016 134.622 59.088C132.638 58.16 131.07 56.848 129.918 55.152L133.47 52.08C134.174 53.392 135.182 54.448 136.494 55.248C137.838 56.016 139.438 56.4 141.294 56.4C142.766 56.4 143.934 56.144 144.798 55.632C145.662 55.12 146.094 54.4 146.094 53.472C146.094 52.864 145.886 52.336 145.47 51.888C145.086 51.408 144.334 51.04 143.214 50.784L138.174 49.728C135.614 49.216 133.79 48.4 132.702 47.28C131.614 46.128 131.07 44.672 131.07 42.912C131.07 41.6 131.454 40.384 132.222 39.264C132.99 38.144 134.11 37.248 135.582 36.576C137.086 35.872 138.878 35.52 140.958 35.52C143.358 35.52 145.406 35.952 147.102 36.816C148.798 37.648 150.094 38.848 150.99 40.416L147.438 43.392C146.83 42.112 145.934 41.168 144.75 40.56C143.566 39.92 142.334 39.6 141.054 39.6C140.03 39.6 139.15 39.728 138.414 39.984C137.678 40.24 137.118 40.592 136.734 41.04C136.35 41.488 136.158 42.016 136.158 42.624C136.158 43.264 136.398 43.824 136.878 44.304C137.358 44.784 138.222 45.152 139.47 45.408L144.942 46.56C147.246 47.008 148.862 47.776 149.79 48.864C150.75 49.92 151.23 51.216 151.23 52.752C151.23 54.288 150.83 55.648 150.03 56.832C149.23 57.984 148.078 58.88 146.574 59.52C145.07 60.16 143.278 60.48 141.198 60.48ZM171.356 44.592C171.356 42.992 170.908 41.76 170.012 40.896C169.148 40 167.948 39.552 166.412 39.552C164.972 39.552 163.74 39.888 162.716 40.56C161.692 41.232 160.94 42.32 160.46 43.824L156.14 42C156.748 40.048 157.932 38.48 159.692 37.296C161.484 36.112 163.788 35.52 166.604 35.52C168.524 35.52 170.22 35.84 171.692 36.48C173.164 37.088 174.316 38.016 175.148 39.264C176.012 40.512 176.444 42.112 176.444 44.064V54.768C176.444 55.952 177.036 56.544 178.22 56.544C178.796 56.544 179.356 56.464 179.9 56.304L179.612 59.856C178.876 60.208 177.948 60.384 176.828 60.384C175.804 60.384 174.876 60.208 174.044 59.856C173.244 59.472 172.604 58.912 172.124 58.176C171.676 57.408 171.452 56.464 171.452 55.344V55.008L172.508 54.96C172.22 56.208 171.628 57.248 170.732 58.08C169.836 58.88 168.796 59.488 167.612 59.904C166.428 60.288 165.228 60.48 164.012 60.48C162.508 60.48 161.148 60.24 159.932 59.76C158.748 59.28 157.804 58.56 157.1 57.6C156.428 56.608 156.092 55.392 156.092 53.952C156.092 52.16 156.668 50.688 157.82 49.536C159.004 48.384 160.668 47.6 162.812 47.184L172.124 45.36L172.076 48.96L165.308 50.352C163.964 50.608 162.956 50.976 162.284 51.456C161.612 51.936 161.276 52.64 161.276 53.568C161.276 54.464 161.612 55.184 162.284 55.728C162.988 56.24 163.916 56.496 165.068 56.496C165.868 56.496 166.636 56.4 167.372 56.208C168.14 56.016 168.828 55.712 169.436 55.296C170.044 54.848 170.508 54.288 170.828 53.616C171.18 52.912 171.356 52.08 171.356 51.12V44.592ZM184.859 60V36H189.419L189.755 42.24L189.083 41.568C189.531 40.192 190.171 39.056 191.003 38.16C191.867 37.232 192.875 36.56 194.027 36.144C195.211 35.728 196.459 35.52 197.771 35.52C199.467 35.52 200.987 35.856 202.331 36.528C203.707 37.168 204.795 38.144 205.595 39.456C206.395 40.768 206.795 42.432 206.795 44.448V60H201.659V46.032C201.659 43.664 201.163 42.032 200.171 41.136C199.211 40.208 197.995 39.744 196.523 39.744C195.467 39.744 194.443 40 193.451 40.512C192.459 40.992 191.627 41.776 190.955 42.864C190.315 43.952 189.995 45.408 189.995 47.232V60H184.859ZM222.354 28.32V60H214.098V28.32H222.354ZM242.819 28.32C247.779 28.32 251.571 29.696 254.195 32.448C256.851 35.2 258.179 39.104 258.179 44.16C258.179 49.216 256.851 53.12 254.195 55.872C251.571 58.624 247.779 60 242.819 60H229.379V28.32H242.819ZM242.003 53.76C244.691 53.76 246.643 52.96 247.859 51.36C249.107 49.728 249.731 47.328 249.731 44.16C249.731 40.992 249.107 38.608 247.859 37.008C246.643 35.376 244.691 34.56 242.003 34.56H237.635V53.76H242.003Z" fill="white"/>
</svg>
